<svg
      viewBox="0 0 1024 1024"
      version="1.1"
      xmlns="http://www.w3.org/2000/svg"
      p-id="6903"
      data-spm-anchor-id="a313x.search_index.0.i10.68fc3a81p19y0Q"
      width="400"
      height="400"
    >
      <path
        d="M830.72 897.92H193.28V507.2A318.56 318.56 0 0 1 512 188.64 318.56 318.56 0 0 1 830.72 507.2z"
        fill="#DFE8F4"
        p-id="6904"
        data-spm-anchor-id="a313x.search_index.0.i9.68fc3a81p19y0Q"
      ></path>
      <path
        d="M600.8 201.44c-7.04-2.08-14.24-4-21.44-5.6v68h-134.72v-68c-7.2 1.6-14.4 3.52-21.44 5.6v62.4h-116.64c-7.84 6.72-16 13.76-22.72 21.28h75.52V384h-141.12c-2.88 6.88-5.28 14.08-7.84 21.28H288v98.4h-94.4a36.64 36.64 0 0 0 0 4v17.44h24v98.4h-24v21.28H288v98.4h-94.72v21.28h24v98.56h21.44v-99.04h120.64v98.56h21.28v-98.56h120.64v98.56h21.44v-98.56h120.64v98.56h21.28v-98.56h120.64v98.56h21.44v-98.56h24v-21.28H736v-98.4h95.04v-21.28h-24v-98.4h24V507.2a36.64 36.64 0 0 0 0-4H736V404.8h77.92c-2.56-7.2-4.96-14.4-7.84-21.28h-141.44v-98.4h75.52c-7.2-7.52-14.88-14.56-22.72-21.28h-116.64z m-220.16 83.68h120.64V384h-120.64z m192 218.08h-120.96V404.8h120.64z m71.04 21.44v98.4h-120.96v-98.4z m-142.08 0v98.4h-120.96v-98.4z m-192-119.84h120.8v98.4h-120.8z m-70.88 218.24v-98.4h120.64v98.4z m192 119.68h-121.12v-98.4h120.8z m141.92 0h-120.96v-98.4h120.64z m142.08 0H593.6v-98.4h120.8z m70.88-218.08v98.4h-120.96v-98.4z m-71.2-119.84v98.4H593.6V404.8z m-71.04-119.68V384h-120.64v-98.88z"
        fill="#CCD8E5"
        p-id="6905"
      ></path>
      <path
        d="M664.96 890.24H359.04V702.56A152.96 152.96 0 0 1 512 549.6a152.96 152.96 0 0 1 152.96 152.96z"
        fill="#FFFFFF"
        p-id="6906"
      ></path>
      <path
        d="M605.44 824H418.56v-114.56A93.28 93.28 0 0 1 512 616a93.28 93.28 0 0 1 93.44 93.44z"
        fill="#bfbfbf"
        p-id="6907"
        data-spm-anchor-id="a313x.search_index.0.i7.68fc3a81p19y0Q"
      ></path>
      <path
        d="M851.04 897.92H172.96A44.96 44.96 0 0 1 128 852.96a44.96 44.96 0 0 1 44.96-44.96h678.08A44.96 44.96 0 0 1 896 852.96a44.96 44.96 0 0 1-44.96 44.96z"
        fill="#d81e06"
        p-id="6908"
        data-spm-anchor-id="a313x.search_index.0.i8.68fc3a81p19y0Q"
      ></path>
    </svg>